<?xml version="1.0" encoding="UTF-8"?>
<svg width="77px" height="28px" viewBox="0 0 77 28" version="1.1" xmlns="http://www.w3.org/2000/svg" xmlns:xlink="http://www.w3.org/1999/xlink">
    <!-- Generator: Sketch 48.1 (47250) - http://www.bohemiancoding.com/sketch -->
    <title>RNB</title>
    <desc>Created with Sketch.</desc>
    <defs></defs>
    <g id="Artboard" stroke="none" stroke-width="1" fill="none" fill-rule="evenodd" transform="translate(-790.000000, -132.000000)">
        <path d="M840.406154,132.396368 C842.726564,132.131499 845.294714,132 847.851376,132 C855.476808,132 864.063459,133.370641 864.442762,135.848698 C864.449828,135.894858 864.455422,135.946664 864.459542,136.004154 C864.49893,136.001398 864.538618,136 864.578551,136 C865.406978,136 866.078551,136.671573 866.078551,137.5 L866.078551,139.199714 C866.078551,140.304283 865.18312,141.199714 864.078551,141.199714 L864.039411,141.199714 C863.981888,141.199714 863.925499,141.194857 863.870632,141.185531 C863.495804,143.47492 862.943282,146.490477 862.209259,150.281241 C861.730004,152.756291 860.510501,154.92984 858.807319,156.590231 C858.735549,156.688231 858.646368,156.772676 858.544329,156.839012 C856.391224,158.815301 853.526969,159.999999 850.428092,159.999999 L844.861006,160 C838.924167,160 833.879687,155.658767 832.994992,149.788215 C832.487779,146.422518 832.103478,143.682761 831.841311,141.535444 C830.950306,141.186991 829.666884,141 828,141 C826.333116,141 825.049694,141.186991 824.158689,141.535444 C823.896522,143.682761 823.512221,146.422518 823.005008,149.788215 C822.120313,155.658767 817.075833,160 811.138994,160 L805.571908,159.999999 C802.473031,159.999999 799.608776,158.815301 797.455671,156.839012 C797.353632,156.772676 797.264451,156.688231 797.192681,156.590231 C795.489499,154.92984 794.269996,152.756291 793.790741,150.281241 C793.057788,146.496005 792.505807,143.483716 792.131009,141.19555 C792.100755,141.198306 792.070112,141.199714 792.039139,141.199714 L792,141.199714 C790.895431,141.199714 790,140.304283 790,139.199714 L790,137.5 C790,136.671573 790.671573,136 791.5,136 C791.513604,136 791.527179,136.000162 791.540724,136.000485 C791.544817,135.944458 791.550323,135.893874 791.557238,135.848698 C791.936541,133.370641 800.523192,132 808.148624,132 C808.40251,132 808.65651,132.001297 808.910368,132.003892 C808.958363,131.999634 809.007257,131.998796 809.056788,132.001614 C809.086461,132.003302 809.116099,132.004987 809.145702,132.006671 C811.189426,132.03404 813.218942,132.145685 815.101621,132.342561 C822.93169,132.779705 827.257612,133 828,133 C828.727657,133 832.88682,132.797801 840.406154,132.396368 Z M832.080176,134.830297 C829.76746,134.94358 828.410956,135 828,135 C827.588041,135 826.228854,134.941002 823.911276,134.822521 C824.247634,135.1273 824.45994,135.457064 824.527887,135.811959 C824.6292,136.341131 824.587615,137.512123 824.402137,139.367928 C825.404663,139.119459 826.602834,139 828,139 C829.397166,139 830.595337,139.119459 831.597863,139.367928 C831.412385,137.512123 831.3708,136.341131 831.472113,135.811959 C831.539483,135.46008 831.748768,135.132907 832.080176,134.830297 Z M841.560661,134.337497 C839.818138,134.513187 838.17854,134.74455 836.83466,135 L858.699388,135 C855.655607,134.459691 851.322468,134 847.851376,134 C847.660713,134 847.468509,134.001147 847.275028,134.003399 C847.20453,134.023491 847.13071,134.036095 847.054426,134.040253 C845.067641,134.148545 843.236614,134.247617 841.560661,134.337497 Z M809.147837,134.010023 C808.811084,134.003415 808.47756,134 808.148624,134 C804.677532,134 800.344393,134.459691 797.300612,135 L819.16534,135 C817.635672,134.709235 815.722868,134.449677 813.711246,134.267906 C812.295388,134.188453 810.774384,134.102498 809.147837,134.010023 Z M834.000128,141 C834.000295,141.176701 833.953665,141.355479 833.855915,141.517125 C833.913823,141.982808 833.97732,142.477226 834.046398,143 L861.530081,143 C861.656962,142.279314 861.771244,141.612291 861.872847,141 L834.000128,141 Z M822.144085,141.517125 C822.046335,141.355479 821.999705,141.176701 821.999872,141 L794.127153,141 C794.228756,141.612291 794.343038,142.279314 794.469919,143 L821.953602,143 C822.02268,142.477226 822.086177,141.982808 822.144085,141.517125 Z M857.569791,155 C858.154729,154.40364 858.66671,153.732579 859.089752,153 L836.199158,153 C836.622021,153.732004 837.134028,154.403205 837.719375,155.000001 L857.569791,155 Z M854.788823,157 L840.499738,157 C841.823571,157.642391 843.305534,158 844.861006,158 L850.428091,157.999999 C851.981182,157.999999 853.463553,157.642912 854.788823,157 Z M859.96802,151 C860.080123,150.642689 860.173122,150.276014 860.245731,149.901034 C860.304806,149.595947 860.362729,149.295592 860.419497,149 L834.899024,149 C834.923276,149.161957 834.947821,149.325352 834.972661,149.490179 C835.052568,150.020418 835.173198,150.535685 835.331084,151.032997 C835.412711,151.011468 835.498423,151 835.586813,151 L859.96802,151 Z M860.799672,147 C860.930974,146.301544 861.054684,145.634708 861.170764,145 L834.318631,145 C834.407265,145.634565 834.502339,146.301389 834.603841,147 L860.799672,147 Z M862.188731,139 C862.313517,138.155488 862.398192,137.486839 862.442295,137 L833.414079,137 C833.431793,137.485796 833.483285,138.15432 833.568427,139 L862.188731,139 Z M818.280625,155 C818.865972,154.403205 819.377979,153.732004 819.800839,153.000001 L796.910248,153 C797.33329,153.732579 797.845272,154.403641 798.430209,155.000001 L818.280625,155 Z M815.500262,157 L801.211177,157 C802.536447,157.642912 804.018818,157.999999 805.571909,157.999999 L811.138994,158 C812.694466,158 814.176429,157.642391 815.500262,157 Z M820.668916,151.032997 C820.826802,150.535685 820.947432,150.020418 821.027339,149.490179 C821.052179,149.325352 821.076724,149.161957 821.100975,149 L795.580502,149 C795.637271,149.295592 795.695194,149.595947 795.754269,149.901034 C795.826878,150.276014 795.919877,150.642689 796.03198,151 L820.413187,151 C820.501577,151 820.587289,151.011468 820.668916,151.032997 Z M821.396159,147 C821.497661,146.301389 821.592735,145.634565 821.681369,145 L794.829236,145 C794.945316,145.634708 795.069026,146.301544 795.200328,147 L821.396163,147 Z M822.431573,139 C822.516715,138.15432 822.568207,137.485796 822.585921,137 L793.557705,137 C793.601808,137.486839 793.686483,138.155488 793.811269,139 L822.431573,139 Z" id="RNB" fill="#A567FF" fill-rule="nonzero"></path>
    </g>
</svg>