<?xml version="1.0" encoding="UTF-8"?>
<svg width="75px" height="62px" viewBox="0 0 75 62" version="1.1" xmlns="http://www.w3.org/2000/svg" xmlns:xlink="http://www.w3.org/1999/xlink">
    <!-- Generator: Sketch 48.1 (47250) - http://www.bohemiancoding.com/sketch -->
    <title>Focus</title>
    <desc>Created with Sketch.</desc>
    <defs></defs>
    <g id="Artboard" stroke="none" stroke-width="1" fill="none" fill-rule="evenodd" transform="translate(-34.000000, -115.000000)">
        <path d="M96.2862397,142 C96.3886374,141.895598 96.514734,141.812824 96.6582569,141.760634 L104.899827,138.763699 C105.41886,138.57496 105.992624,138.842716 106.181363,139.36175 C106.265371,139.592772 106.261343,139.846643 106.170047,140.074883 L105.4,142 L107.179812,142 C107.732097,142 108.179812,142.447715 108.179812,143 C108.179812,143.552285 107.732097,144 107.179812,144 L105.4,144 L106.170047,145.925117 C106.37516,146.4379 106.125744,147.019871 105.612961,147.224984 C105.38472,147.31628 105.130849,147.320309 104.899827,147.236301 L96.6582569,144.239366 C96.514734,144.187176 96.3886374,144.104402 96.2862397,144 L64.179812,144 C63.6275273,144 63.179812,143.552285 63.179812,143 C63.179812,142.447715 63.6275273,142 64.179812,142 L96.2862397,142 Z M71.1275797,169.488772 C68.7520862,170.402268 66.2138294,170.926432 63.5728746,170.992808 C63.5333538,170.997557 63.493124,171 63.4523234,171 L60,171 C57.6958328,171 55.4971009,170.729126 53.4241401,170.214497 L49.8583445,176.179877 C49.5749816,176.653928 48.9609767,176.808511 48.4869261,176.525148 C48.0128756,176.241785 47.8582927,175.62778 48.1416555,175.15373 L51.440276,169.635318 C40.8397233,166.061865 34,155.814843 34,143 C34,126.998046 44.6649298,115 60,115 L62,115 C62.0591511,115 62.1171026,115.005136 62.1734331,115.014986 C62.4478428,115.005021 62.7233877,115 63,115 C75.927055,115 86.5229582,125.965918 87.8581233,140 L85.8486149,140 C84.5313534,127.034825 74.7803809,117 63,117 C50.3254022,117 40,128.616078 40,143 C40,157.383922 50.3254022,169 63,169 C74.7803809,169 84.5313534,158.965175 85.8486149,146 L87.8581233,146 C86.8895013,156.181303 81.0468935,164.747811 72.9761502,168.684009 L76.8434143,175.15373 C77.1267772,175.62778 76.9721943,176.241785 76.4981437,176.525148 C76.0240931,176.808511 75.4100882,176.653928 75.1267254,176.179877 L71.1416555,169.513074 C71.1368372,169.505013 71.1321454,169.496912 71.1275797,169.488772 Z M79.8099898,140 L77.7926135,140 C76.5988508,131.463474 70.3975337,125 63,125 C54.7574429,125 48,133.024463 48,143 C48,152.975537 54.7574429,161 63,161 C70.3975337,161 76.5988508,154.536526 77.7926135,146 L79.8099898,146 C78.5828508,155.598212 71.557694,163 63,163 C53.5694451,163 46,154.011284 46,143 C46,131.988716 53.5694451,123 63,123 C71.557694,123 78.5828508,130.401788 79.8099898,140 Z M71.7178947,140 L69.6771299,140 C68.7718717,135.915928 66.0737596,133 63,133 C59.2152336,133 56,137.420946 56,143 C56,148.579054 59.2152336,153 63,153 C66.0737596,153 68.7718717,150.084072 69.6771299,146 L71.7178947,146 C70.7303481,151.145047 67.2569968,155 63,155 C57.9482104,155 54,149.571211 54,143 C54,136.428789 57.9482104,131 63,131 C67.2569968,131 70.7303481,134.854953 71.7178947,140 Z M65.442991,140 L64.6938776,140 C64.2187722,140 63.7723933,140.136969 63.3848433,140.377383 C63.2172662,140.111334 63.0709412,140 63,140 C62.9104959,140 62.7009958,140.177222 62.4802136,140.618786 C62.1808983,141.217417 62,142.0728 62,143 C62,143.9272 62.1808983,144.782583 62.4802136,145.381214 C62.7009958,145.822778 62.9104959,146 63,146 C63.0709412,146 63.2172662,145.888666 63.3848433,145.622617 C63.7723933,145.863031 64.2187722,146 64.6938776,146 L65.442991,146 C64.9296998,147.203028 64.0840043,148 63,148 C61.1547185,148 60,145.690563 60,143 C60,140.309437 61.1547185,138 63,138 C64.0840043,138 64.9296998,138.796972 65.442991,140 Z" id="Focus" fill="#A567FF" fill-rule="nonzero"></path>
    </g>
</svg>