<?xml version="1.0" encoding="UTF-8"?>
<svg width="64px" height="72px" viewBox="0 0 64 72" version="1.1" xmlns="http://www.w3.org/2000/svg" xmlns:xlink="http://www.w3.org/1999/xlink">
    <!-- Generator: Sketch 48.1 (47250) - http://www.bohemiancoding.com/sketch -->
    <title>Chill</title>
    <desc>Created with Sketch.</desc>
    <defs></defs>
    <g id="Artboard" stroke="none" stroke-width="1" fill="none" fill-rule="evenodd" transform="translate(-159.000000, -110.000000)">
        <path d="M183.264132,156.444015 C184.409378,156.101845 185.814937,156.385416 191.004736,157.574163 C192.60459,157.940617 193.756974,158.179402 194.897997,158.366611 C195.681028,158.495084 196.413412,158.589703 197.102972,158.648818 C193.706953,154.441633 191.903278,146.146078 191.551533,133.719891 C187.962465,134.771626 184.800239,135.437785 182.060556,135.716577 C180.426616,135.882848 179.133418,135.68507 177.155401,135.132531 C174.917761,134.507471 174.362608,134.425184 173.541913,134.721458 C173.420465,134.7653 173.299383,134.819664 173.177903,134.885555 C173.710874,139.502973 175.287971,144.406663 177.934099,149.180404 C179.446997,151.909746 181.255062,154.343836 183.264132,156.444015 Z M185.33812,158.432693 C193.03106,165.189359 202.930727,167.433522 210.617626,163.350694 L209.91973,159.861225 C206.184212,160.434851 202.448037,160.721715 198.711634,160.721715 C197.456028,160.721715 196.096248,160.589951 194.574184,160.340223 C193.383435,160.144855 192.195304,159.898663 190.558192,159.523675 C187.949021,158.926033 186.363575,158.582059 185.33812,158.432693 Z M212.434233,162.235689 C221.657822,155.749897 223.577921,140.766765 216.417366,127.848781 C209.019706,114.50305 192.58163,108.241538 181.814414,114.209904 C175.605095,117.651785 172.620757,124.654082 173.006607,132.789871 C174.298097,132.351346 175.102919,132.482628 177.693481,133.206273 C179.450741,133.697145 180.529193,133.862081 181.85808,133.726853 C184.464995,133.461571 187.510078,132.82009 190.989004,131.800631 C192.049027,131.489923 193.160192,132.097427 193.470824,133.157465 C193.519027,133.321959 193.545884,133.491967 193.550734,133.66331 C193.940608,147.436549 196.161583,155.807243 199.996656,158.710086 C203.202846,158.652058 206.409251,158.376851 209.616164,157.884398 C210.673339,157.722053 211.671135,158.420196 211.880894,159.468993 L212.434233,162.235689 Z M188.702793,110.058093 C199.463706,108.984428 211.885807,115.548302 218.166605,126.879162 C225.011741,139.228113 224.041698,153.497496 216.426031,161.43244 C211.418221,167.975583 204.125174,172.333041 196,173.61036 L196,176.095959 C205.228009,176.449452 208,177.724726 208,179 C208,180.5 204.164983,182 190.5,182 C176.835017,182 173,180.656854 173,179 C173,177.591371 175.771992,176.409494 185,176.08698 L185,173.438417 C170.194836,170.629977 159,157.622336 159,142 C159,126.169463 170.568265,112.784123 186.052495,110.380286 C186.841068,110.257865 187.850546,110.135212 188.702793,110.058093 Z M194,173.86058 C193.00945,173.953011 192.008612,174 191,174 C190.828904,174 190.658122,173.998657 190.487663,173.995982 C191.659972,174.819708 192.497418,176.154381 193,178 L194,178 L194,173.86058 Z" id="Chill" fill="#A567FF" fill-rule="nonzero"></path>
    </g>
</svg>