<?xml version="1.0" encoding="UTF-8"?>
<svg width="49px" height="71px" viewBox="0 0 49 71" version="1.1" xmlns="http://www.w3.org/2000/svg" xmlns:xlink="http://www.w3.org/1999/xlink">
    <!-- Generator: Sketch 48.1 (47250) - http://www.bohemiancoding.com/sketch -->
    <title>Jazz</title>
    <desc>Created with Sketch.</desc>
    <defs></defs>
    <g id="Artboard" stroke="none" stroke-width="1" fill="none" fill-rule="evenodd" transform="translate(-552.000000, -110.000000)">
        <path d="M576.853174,122.074663 L577.1208,119 C577.1208,114.029437 581.150237,110 586.1208,110 L597.1208,110 C598.777654,110 600.1208,111.343146 600.1208,113 C600.1208,114.656854 598.777654,116 597.1208,116 L587.182812,116 C585.525957,116 584.182812,117.343146 584.182812,119 C584.182851,119.015383 584.431379,135.177415 584.928397,167.486096 C585.041467,174.835679 579.175115,180.885355 571.825532,180.998425 C571.72317,180.999738 571.72317,180.999738 571.6208,181 C563.950703,181 557.447799,175.360061 556.363083,167.767053 L555.204949,159.660108 L553.105792,158.61053 C552.117835,158.116551 551.717386,156.915205 552.211365,155.927248 C552.347397,155.655184 552.543693,155.417732 552.785319,155.23296 L566.404729,144.818117 C567.282153,144.147146 568.537374,144.314509 569.208345,145.191932 C569.557946,145.649103 569.69366,146.234719 569.580791,146.799065 L569.133206,149.03699 L570.865008,162.89141 C570.944174,163.524734 571.482546,164 572.1208,164 C572.733632,164 573.244729,163.531418 573.297819,162.920889 L573.981097,155.070947 L572.788604,155.070947 C572.788725,155.618139 572.348262,156.064783 571.799724,156.070885 C571.247473,156.077028 570.794806,155.634321 570.788662,155.08207 L570.766413,153.08207 C570.76027,152.52982 571.202977,152.077152 571.755227,152.071009 C572.307478,152.064865 572.760146,152.507572 572.766289,153.059823 L572.766413,153.070947 L574.155182,153.070947 L574.416309,150.070947 L572.788604,150.070947 C572.788725,150.618139 572.348262,151.064783 571.799724,151.070885 C571.247473,151.077028 570.794806,150.634321 570.788662,150.08207 L570.766413,148.08207 C570.76027,147.52982 571.202977,147.077152 571.755227,147.071009 C572.307478,147.064865 572.760146,147.507572 572.766289,148.059823 L572.766413,148.070947 L574.590394,148.070947 L574.851835,145.067344 C574.823657,145.06973 574.795146,145.070947 574.766351,145.070947 L572.788604,145.070947 C572.788725,145.618139 572.348262,146.064783 571.799724,146.070885 C571.247473,146.077028 570.794806,145.634321 570.788662,145.08207 L570.766413,143.08207 C570.76027,142.52982 571.202977,142.077152 571.755227,142.071009 C572.307478,142.064865 572.760146,142.507572 572.766289,143.059823 L572.766413,143.070947 L574.766351,143.070947 C574.854972,143.070947 574.940901,143.082475 575.022719,143.104113 L575.808988,134.070947 L574.788604,134.070947 C574.788725,134.618139 574.348262,135.064783 573.799724,135.070885 C573.247473,135.077028 572.794806,134.634321 572.788662,134.08207 L572.766413,132.08207 C572.76027,131.52982 573.202977,131.077152 573.755227,131.071009 C574.307478,131.064865 574.760146,131.507572 574.766289,132.059823 L574.766413,132.070947 L575.983073,132.070947 L576.2442,129.070947 L574.788604,129.070947 C574.788725,129.618139 574.348262,130.064783 573.799724,130.070885 C573.247473,130.077028 572.794806,129.634321 572.788662,129.08207 L572.766413,127.08207 C572.76027,126.52982 573.202977,126.077152 573.755227,126.071009 C574.307478,126.064865 574.760146,126.507572 574.766289,127.059823 L574.766413,127.070947 L576.418285,127.070947 L576.679412,124.070947 L574.788604,124.070947 C574.788725,124.618139 574.348262,125.064783 573.799724,125.070885 C573.247473,125.077028 572.794806,124.634321 572.788662,124.08207 L572.766413,122.08207 C572.76027,121.52982 573.202977,121.077152 573.755227,121.071009 C574.307478,121.064865 574.760146,121.507572 574.766289,122.059823 L574.766413,122.070947 L576.766351,122.070947 C576.795602,122.070947 576.82456,122.072203 576.853174,122.074663 Z M580.182812,121 C580.811785,141.965073 581.060314,157.460438 580.928397,167.486096 C580.869304,171.977103 579.749702,175.369165 577.569591,177.662282 C581.217508,175.77788 583.003777,172.385818 582.928397,167.486096 C582.43134,135.177418 582.182812,119.015386 582.182812,119 C582.182812,116.562097 583.828808,115.228764 587.1208,115 C582.150237,115 580.182812,116.029437 580.182812,121 Z M570.745085,165.861193 C569.638179,165.136172 569.016634,164.228934 568.880453,163.139479 L567.108394,148.96301 L567.61963,146.406832 L565.61963,148.406832 C566.612139,156.938138 567.225957,162.012912 567.461085,163.631152 C567.696212,165.249393 568.790878,165.99274 570.745085,165.861193 Z" id="Jazz" fill="#A567FF" fill-rule="nonzero"></path>
    </g>
</svg>