<?xml version="1.0" encoding="UTF-8"?>
<svg width="48px" height="68px" viewBox="0 0 48 68" version="1.1" xmlns="http://www.w3.org/2000/svg" xmlns:xlink="http://www.w3.org/1999/xlink">
    <!-- Generator: Sketch 48.1 (47250) - http://www.bohemiancoding.com/sketch -->
    <title>HipHop</title>
    <desc>Created with Sketch.</desc>
    <defs></defs>
    <g id="Artboard" stroke="none" stroke-width="1" fill="none" fill-rule="evenodd" transform="translate(-932.000000, -112.000000)">
        <path d="M935,112 L977,112 C978.656854,112 980,113.343146 980,115 L980,177 C980,178.656854 978.656854,180 977,180 L935,180 C933.343146,180 932,178.656854 932,177 L932,115 C932,113.343146 933.343146,112 935,112 Z M935,114 C934.447715,114 934,114.447715 934,115 L934,177 C934,177.552285 934.447715,178 935,178 L977,178 C977.552285,178 978,177.552285 978,177 L978,115 C978,114.447715 977.552285,114 977,114 L935,114 Z M945.357689,166.467916 C947.709769,169.813622 951.599557,172 956,172 C960.400443,172 964.290231,169.813622 966.642311,166.467916 C965.270132,164.516067 963.374606,162.958787 961.159655,162 C961.693425,161.103134 962,160.055286 962,158.935832 C962,155.622124 959.313708,152.935832 956,152.935832 C952.686292,152.935832 950,155.622124 950,158.935832 C950,160.055286 950.306575,161.103134 950.840345,162 C948.625394,162.958787 946.729868,164.516067 945.357689,166.467916 Z M956,174 C947.715729,174 941,167.284271 941,159 C941,150.715729 947.715729,144 956,144 C964.284271,144 971,150.715729 971,159 C971,167.284271 964.284271,174 956,174 Z M956,163 C953.790861,163 952,161.209139 952,159 C952,156.790861 953.790861,155 956,155 C958.209139,155 960,156.790861 960,159 C960,161.209139 958.209139,163 956,163 Z M938,120 C936.895431,120 936,119.104569 936,118 C936,116.895431 936.895431,116 938,116 C939.104569,116 940,116.895431 940,118 C940,119.104569 939.104569,120 938,120 Z M948.195639,135.476472 C949.920497,137.929989 952.773008,139.533333 956,139.533333 C959.226992,139.533333 962.079503,137.929989 963.804361,135.476472 C962.798097,134.045116 961.408044,132.903111 959.783747,132.2 C960.175178,131.542299 960.4,130.773876 960.4,129.952944 C960.4,127.522891 958.430053,125.552944 956,125.552944 C953.569947,125.552944 951.6,127.522891 951.6,129.952944 C951.6,130.773876 951.824822,131.542299 952.216253,132.2 C950.591956,132.903111 949.201903,134.045116 948.195639,135.476472 Z M956,141 C949.924868,141 945,136.075132 945,130 C945,123.924868 949.924868,119 956,119 C962.075132,119 967,123.924868 967,130 C967,136.075132 962.075132,141 956,141 Z M956,132.933333 C954.379965,132.933333 953.066667,131.620035 953.066667,130 C953.066667,128.379965 954.379965,127.066667 956,127.066667 C957.620035,127.066667 958.933333,128.379965 958.933333,130 C958.933333,131.620035 957.620035,132.933333 956,132.933333 Z M974,120 C972.895431,120 972,119.104569 972,118 C972,116.895431 972.895431,116 974,116 C975.104569,116 976,116.895431 976,118 C976,119.104569 975.104569,120 974,120 Z M938,176 C936.895431,176 936,175.104569 936,174 C936,172.895431 936.895431,172 938,172 C939.104569,172 940,172.895431 940,174 C940,175.104569 939.104569,176 938,176 Z M974,176 C972.895431,176 972,175.104569 972,174 C972,172.895431 972.895431,172 974,172 C975.104569,172 976,172.895431 976,174 C976,175.104569 975.104569,176 974,176 Z" id="HipHop" fill="#A567FF" fill-rule="nonzero"></path>
    </g>
</svg>