<?xml version="1.0" encoding="UTF-8"?>
<svg width="46px" height="54px" viewBox="0 0 46 54" version="1.1" xmlns="http://www.w3.org/2000/svg" xmlns:xlink="http://www.w3.org/1999/xlink">
    <!-- Generator: Sketch 48.1 (47250) - http://www.bohemiancoding.com/sketch -->
    <title>Sad</title>
    <desc>Created with Sketch.</desc>
    <defs></defs>
    <g id="Artboard" stroke="none" stroke-width="1" fill="none" fill-rule="evenodd" transform="translate(-678.000000, -118.000000)">
        <path d="M686.999006,141.334068 C686.365706,140.026782 686,138.28879 686,137 C686,133.318102 688.984768,130.333333 692.666667,130.333333 C693.288115,125.372651 696.860663,121.323004 701.573073,120.069214 C701.328343,120.041737 701.081721,120.02234 700.83353,120.011204 C700.9442,120.006233 701.055272,120.002905 701.166721,120.001242 C701.111217,120.000415 701.055642,120 701,120 C695.371069,120 690.665845,124.249444 690.064544,129.800661 L689.976163,130.616601 L689.158656,130.689067 C686.25001,130.946895 684,133.392599 684,136.333333 C684,138.49848 685.214291,140.380014 686.999006,141.334068 Z M724,134.333333 C724,139.672086 719.672086,144 714.333333,144 L689.666667,144 C685.432484,144 682,140.567516 682,136.333333 C682,132.627599 684.63973,129.503703 688.183725,128.809984 C689.230964,122.630124 694.611665,118 701,118 C704.370351,118 707.536941,119.290157 709.926781,121.549299 C710.377228,121.40705 710.850462,121.333333 711.333333,121.333333 C713.478766,121.333333 715.302695,122.786471 715.83985,124.783382 C720.485397,125.50961 724,129.530706 724,134.333333 Z M682.447086,159.795555 C679.779755,159.080846 678.196843,156.339161 678.911552,153.671831 C679.580196,151.176415 683.682193,147.703187 685.552914,148.204445 C687.423636,148.705703 689.239455,153.764605 688.57081,156.260021 C687.856101,158.927352 685.114416,160.510264 682.447086,159.795555 Z M682.964724,157.863703 C684.565122,158.292529 686.210133,157.342781 686.638958,155.742383 C687.053564,154.195053 685.656478,150.302747 685.035276,150.136297 C684.414074,149.969846 681.258009,152.642138 680.843403,154.189469 C680.414578,155.789867 681.364326,157.434878 682.964724,157.863703 Z M689.447086,171.795555 C686.779755,171.080846 685.196843,168.339161 685.911552,165.671831 C686.580196,163.176415 690.682193,159.703187 692.552914,160.204445 C694.423636,160.705703 696.239455,165.764605 695.57081,168.260021 C694.856101,170.927352 692.114416,172.510264 689.447086,171.795555 Z M689.964724,169.863703 C691.565122,170.292529 693.210133,169.342781 693.638958,167.742383 C694.053564,166.195053 692.656478,162.302747 692.035276,162.136297 C691.414074,161.969846 688.258009,164.642138 687.843403,166.189469 C687.414578,167.789867 688.364326,169.434878 689.964724,169.863703 Z M704.447086,171.795555 C701.779755,171.080846 700.196843,168.339161 700.911552,165.671831 C701.580196,163.176415 705.682193,159.703187 707.552914,160.204445 C709.423636,160.705703 711.239455,165.764605 710.57081,168.260021 C709.856101,170.927352 707.114416,172.510264 704.447086,171.795555 Z M704.964724,169.863703 C706.565122,170.292529 708.210133,169.342781 708.638958,167.742383 C709.053564,166.195053 707.656478,162.302747 707.035276,162.136297 C706.414074,161.969846 703.258009,164.642138 702.843403,166.189469 C702.414578,167.789867 703.364326,169.434878 704.964724,169.863703 Z M712.447086,159.795555 C709.779755,159.080846 708.196843,156.339161 708.911552,153.671831 C709.580196,151.176415 713.682193,147.703187 715.552914,148.204445 C717.423636,148.705703 719.239455,153.764605 718.57081,156.260021 C717.856101,158.927352 715.114416,160.510264 712.447086,159.795555 Z M712.964724,157.863703 C714.565122,158.292529 716.210133,157.342781 716.638958,155.742383 C717.053564,154.195053 715.656478,150.302747 715.035276,150.136297 C714.414074,149.969846 711.258009,152.642138 710.843403,154.189469 C710.414578,155.789867 711.364326,157.434878 712.964724,157.863703 Z M697.447086,159.795555 C694.779755,159.080846 693.196843,156.339161 693.911552,153.671831 C694.580196,151.176415 698.682193,147.703187 700.552914,148.204445 C702.423636,148.705703 704.239455,153.764605 703.57081,156.260021 C702.856101,158.927352 700.114416,160.510264 697.447086,159.795555 Z M697.964724,157.863703 C699.565122,158.292529 701.210133,157.342781 701.638958,155.742383 C702.053564,154.195053 700.656478,150.302747 700.035276,150.136297 C699.414074,149.969846 696.258009,152.642138 695.843403,154.189469 C695.414578,155.789867 696.364326,157.434878 697.964724,157.863703 Z" id="Sad" fill="#A567FF" fill-rule="nonzero"></path>
    </g>
</svg>