<?xml version="1.0" encoding="UTF-8"?>
<svg width="62px" height="74px" viewBox="0 0 62 74" version="1.1" xmlns="http://www.w3.org/2000/svg" xmlns:xlink="http://www.w3.org/1999/xlink">
    <!-- Generator: Sketch 48.1 (47250) - http://www.bohemiancoding.com/sketch -->
    <title>Soul</title>
    <desc>Created with Sketch.</desc>
    <defs></defs>
    <g id="Artboard" stroke="none" stroke-width="1" fill="none" fill-rule="evenodd" transform="translate(-289.000000, -109.000000)">
        <path d="M303.542113,166.275323 C303.293538,166.119296 303.047335,165.95984 302.803569,165.797021 M299.220004,163.004502 C292.943746,157.331601 289,149.126356 289,140 C289,122.879173 302.879173,109 320,109 C337.120827,109 351,122.879173 351,140 C351,151.07436 345.193006,160.792425 336.457887,166.275323 C336.811731,164.909317 337,163.476645 337,162 C337,160.800248 336.875718,159.629524 336.639325,158.5 C336.875718,157.370476 337,156.199752 337,155 C337,145.611159 329.388841,138 320,138 C314.413576,138 309.45651,140.694602 306.357636,144.854973 C304.199535,140.010795 303,134.645481 303,129 C303,123.982308 303.947587,119.185937 305.673572,114.780076 C296.909822,119.769141 291,129.194414 291,140 C291,147.961033 294.207869,155.172828 299.401521,160.413299 M338.465898,156 L338.76547,156 C340.422324,156 341.76547,157.343146 341.76547,159 C341.76547,159.110685 341.759344,159.221286 341.747121,159.331295 L341.290407,163.441726 C341.075011,165.380285 339.497679,166.867189 337.576093,166.991569 C335.320307,174.335088 325.852101,183 320,183 C314.145738,183 304.684421,174.347817 302.42579,167 L302.379109,167 C300.340912,167 298.628655,165.467457 298.403574,163.441726 L297.946859,159.331295 C297.934636,159.221286 297.928511,159.110685 297.928511,159 C297.928511,157.343146 299.271656,156 300.928511,156 L301.533867,156 C301.598785,154.209518 301.763736,152.463584 302.029886,150.75735 C304.170847,142.197803 310.249464,137.855262 320,137.855262 C329.750536,137.855262 335.829153,142.197803 337.970114,150.75735 C338.235948,152.464976 338.400822,154.210911 338.465898,156 Z M314.999941,172 C314.447684,171.999968 314,171.552265 314,171 C314,170.447715 314.447715,170 315,170 C315.639206,170 316.809795,169.414705 318.392955,168.205332 C318.5673,168.07215 318.780606,168 319,168 L321,168 C321.212393,168 321.41927,168.067625 321.590655,168.193076 C323.24802,169.406238 324.435543,170 325,170 C325.552285,170 326,170.447715 326,171 C326,171.552265 325.552316,171.999968 325.000059,172 C325.000219,172.209043 324.935082,172.41989 324.8,172.6 C323.611146,174.185139 321.981424,175 320,175 C318.018576,175 316.388854,174.185139 315.2,172.6 C315.064918,172.41989 314.999781,172.209043 314.999941,172 Z M323.126437,171.495752 C322.412086,171.161494 321.600811,170.661984 320.676018,170 L319.334644,170 C318.428337,170.67376 317.61754,171.180195 316.888694,171.51488 C317.68639,172.518269 318.696873,173 320,173 C321.311381,173 322.326398,172.512148 323.126437,171.495752 Z M301.502803,158 L300.928511,158 C300.376226,158 299.928511,158.447715 299.928511,159 C299.928511,159.036895 299.930553,159.073762 299.934627,159.110432 L300.391342,163.220863 C300.489065,164.100372 301.147461,164.793947 301.986378,164.961336 C301.675475,162.56452 301.513555,160.247096 301.502803,158 Z M320,139.855262 C311.134149,139.855262 305.879432,143.609213 303.988193,151.153217 C303.336744,155.354805 303.336744,159.926224 303.991343,164.868703 C304.878665,171.568334 314.68489,181 320,181 C325.310615,181 335.120926,171.559692 336.008687,164.868477 C336.660902,159.952615 336.66325,155.396359 336.018773,151.198415 C334.100235,143.59471 328.848709,139.855262 320,139.855262 Z M309.335636,160.747409 C308.922853,160.380491 308.885673,159.748419 309.252591,159.335636 C309.619509,158.922853 310.251581,158.885673 310.664364,159.252591 C311.219156,159.745739 311.981938,160 313,160 C314.018062,160 314.780844,159.745739 315.335636,159.252591 C315.748419,158.885673 316.380491,158.922853 316.747409,159.335636 C317.114327,159.748419 317.077147,160.380491 316.664364,160.747409 C315.719156,161.587594 314.481938,162 313,162 C311.518062,162 310.280844,161.587594 309.335636,160.747409 Z M323.335636,160.747409 C322.922853,160.380491 322.885673,159.748419 323.252591,159.335636 C323.619509,158.922853 324.251581,158.885673 324.664364,159.252591 C325.219156,159.745739 325.981938,160 327,160 C328.018062,160 328.780844,159.745739 329.335636,159.252591 C329.748419,158.885673 330.380491,158.922853 330.747409,159.335636 C331.114327,159.748419 331.077147,160.380491 330.664364,160.747409 C329.719156,161.587594 328.481938,162 327,162 C325.518062,162 324.280844,161.587594 323.335636,160.747409 Z" id="Soul" fill="#A567FF" fill-rule="nonzero"></path>
    </g>
</svg>